<svg fill="none" viewBox="0 0 24 24" xmlns="http://www.w3.org/2000/svg"><path clip-rule="evenodd" d="m12.2652 3.57566c-.1465-.14645-.3839-.14645-.5304 0l-6.4848 6.48484v9.8143c0 .2071.16789.375.375.375h3.375v-4.125c0-1.0355.83947-1.875 1.875-1.875h2.25c1.0355 0 1.875.8395 1.875 1.875v4.125h3.375c.2071 0 .375-.1679.375-.375v-9.8143zm7.9848 7.98484.9697.9697c.2929.2929.7677.2929 1.0606 0s.2929-.7678 0-1.0607l-8.9545-8.95451c-.7322-.73223-1.9194-.73223-2.6516.00001l-8.95453 8.9545c-.29289.2929-.29289.7678 0 1.0607s.76777.2929 1.06066 0l.96967-.9697v8.3143c0 1.0356.83947 1.875 1.875 1.875h12.75c1.0355 0 1.875-.8394 1.875-1.875zm-6.75 8.6893h-3v-4.125c0-.2071.1679-.375.375-.375h2.25c.2071 0 .375.1679.375.375z" fill-rule="evenodd"/></svg>