<svg fill="none" height="64" viewBox="0 0 64 64" width="64" xmlns="http://www.w3.org/2000/svg"><g clip-rule="evenodd" fill-rule="evenodd"><path d="m31.5642 25.3191c1.3157.0862 2.6275-.2196 3.7694-.8789l1.9999 3.464c-1.827 1.0549-3.9258 1.5443-6.0309 1.4063-2.1052-.138-4.1221-.897-5.7958-2.1813-1.6737-1.2842-2.929-3.0359-3.6071-5.0336s-.7486-4.1516-.2026-6.1893l3.8637 1.0352c-.3412 1.2736-.2972 2.6198.1266 3.8683.4239 1.2485 1.2084 2.3434 2.2545 3.146 1.046.8027 2.3066 1.2771 3.6223 1.3633z" fill="#117bc7"/><path d="m29.2522 12.5922c-.8987.4066-1.6959 1.0075-2.3342 1.7595-.6383.7519-1.1019 1.637-1.3572 2.5898l-3.8637-1.0352c.4085-1.5244 1.1502-2.94 2.1715-4.1432 1.0213-1.2031 2.2969-2.16458 3.7347-2.81515z" fill="#01aae0"/><path d="m37.7739 15.3332c-.4377-.7582-1.0205-1.4227-1.7151-1.9557-.6945-.5329-1.4873-.9238-2.3329-1.1504-.8457-.2266-1.7277-.2844-2.5956-.1701-.868.1143-1.705.3984-2.4632.8361l-2-3.464c1.2131-.70038 2.5523-1.15498 3.9411-1.33783s2.8-.09037 4.153.27215 2.6214.98799 3.7327 1.84068c1.1113.8527 2.0438 1.916 2.7441 3.129z" fill="#0ed6e5"/><path d="m38.667 18.6664c0-1.1702-.308-2.3198-.8931-3.3332l3.4641-2.0001c.9362 1.6215 1.429 3.4609 1.429 5.3333 0 1.8723-.4929 3.7117-1.4291 5.3332l-3.4641-1.9999c.5851-1.0134.8932-2.163.8932-3.3333z" fill="#0092c0"/></g><path d="m52.667 42.6667c0-1.1046-.8954-2-2-2s-2 .8954-2 2v3.3333h-3.3333c-1.1046 0-2 .8954-2 2s.8954 2 2 2h3.3333v3.3333c0 1.1046.8954 2 2 2s2-.8954 2-2v-3.3333h3.3333c1.1046 0 2-.8954 2-2s-.8954-2-2-2h-3.3333z" fill="#0092c0"/><path d="m32.0002 36c4.0793 0 7.9613 1.6818 11.0138 4.5697l3.3377-2.3274c-3.7894-3.8782-8.825-6.2423-14.3515-6.2423-3.0814 0-6.0102.735-8.6554 2.0576l1.8201 3.5765c2.1262-1.0576 4.447-1.6341 6.8353-1.6341z" fill="#0ed6e5"/><path d="m15.0127 52c1.1618-6.6449 5.11-11.858 10.1522-14.3659l-1.8201-3.5765c-6.4293 3.2145-11.1836 9.9004-12.3829 17.9424z" fill="#0092c0"/><path d="m13.3336 55.9997c-1.4728 0-2.6806-1.1978-2.5368-2.6635.0441-.4494.0992-.8947.1651-1.3362h4.0508l19.6543-.0003v4z" fill="#117bc7"/><path d="m42.667 52v4l-8-.0003v-4z" fill="#01aae0"/></svg>