<svg fill="none" height="52" viewBox="0 0 208 52" width="208" xmlns="http://www.w3.org/2000/svg" xmlns:xlink="http://www.w3.org/1999/xlink"><clipPath id="a"><path d="m13.52 10.3999h178.88v22.88h-178.88z"/></clipPath><clipPath id="b"><path d="m104.26 10.9199h29.64v22.2295h-29.64z"/></clipPath><g clip-path="url(#a)"><g fill="#0d0a0b"><path clip-rule="evenodd" d="m184.55 18.3771-3.726-.0202c-.86 0-1.383.1813-1.571.5438-.108.2014-.175.376-.202.5237-.013.1477-.02.3827-.02.7049v11.1984c0 .5773.081 1.007.242 1.289.201.3356.711.5035 1.53.5035h3.686c2.055 0 3.8-.7318 5.237-2.1954 1.45-1.4635 2.175-3.2158 2.175-5.2567 0-2.0544-.738-3.7798-2.215-5.1762-1.477-1.4099-3.189-2.1148-5.136-2.1148zm2.618 10.1107c-.779.7116-1.652 1.0675-2.618 1.0675h-1.954v-7.6133h1.933c1.021 0 1.907.3693 2.659 1.1078.765.725 1.148 1.6314 1.148 2.719s-.389 1.9939-1.168 2.719z" fill-rule="evenodd"/><path d="m161.107 30.3205c-.201-.1074-.523-.1611-.967-.1611h-5.478v-9.9899c0-.47-.033-.8191-.101-1.0473-.174-.4968-.731-.7452-1.671-.7452-.86 0-1.383.1812-1.571.5438-.108.2014-.175.3826-.202.5438-.013.1477-.02.3759-.02.6847v11.1984c0 .4699.04.8123.121 1.0272.161.5102.712.7653 1.652.7653h7.25c.443 0 .792-.0671 1.048-.2014.161-.0806.275-.2283.342-.4431s.101-.4968.101-.8459c0-.3626-.034-.6512-.101-.8661-.067-.2148-.201-.3692-.403-.4632z"/><path d="m84.5465 33.0378c-.1568-.0629-.2865-.161-.3929-.299-3.1583-4.2194-5.2373-6.9782-6.2357-8.2745l-.5632-.7312v7.8666c0 .3352-.0143.5573-.037.6823l-.0025.0138-.0013.014c-.0088.0965-.0517.2372-.1539.429l-.0008.0016-.0009.0017c-.0496.0959-.1565.1965-.3819.2746-.2277.079-.5504.1252-.9818.1252-.4166 0-.7279-.046-.9478-.1243-.2168-.0772-.3228-.177-.3738-.2755l-.0008-.0017-.0009-.0016c-.0989-.1858-.1536-.3386-.1758-.4613-.0122-.1555-.0189-.3869-.0189-.6989v-11.7756c0-.5212.0637-.842.1516-1.0105.1027-.1838.2427-.2973.4291-.3563.2248-.0711.5337-.112.9373-.112.406 0 .6952.0414.8853.1087l.0101.0036.0104.0028c.2393.0667.3493.1334.3884.1725l.0157.0159.0179.0134c-.0002-.0002-.0001-.0002 0 0 .0003.0003.001.0011.0024.0024.0091.0091.0437.0435.114.1231.0762.0863.1788.2076.3087.3649 2.9593 4.0332 4.9395 6.6999 5.9384 7.9969l.5632.7312v-8.0566c0-.5212.0637-.842.1516-1.0105.1027-.1838.2427-.2973.4291-.3563.2265-.0717.5222-.112.8952-.112.3936 0 .6826.0345.8801.0927l.0023.0007.0023.0006c.2367.0659.3653.1347.4247.1868l.0068.006.0072.0056c.0607.0473.1216.1305.1645.2811l.0035.0122.0045.0119c.0633.1691.1063.4799.1063.9656v11.7123c0 .3352-.0143.5573-.037.6823l-.0025.0138-.0013.014c-.0088.0965-.0518.2372-.1539.429l-.0008.0016-.0009.0017c-.0496.0959-.1565.1965-.3819.2746-.2277.079-.5504.1252-.9818.1252-.5486 0-.8721-.0446-1.0206-.1041z"/><path clip-rule="evenodd" d="m48.8275 28.8675h2.9263l.8569-.0554.0858.2047c.939 2.2414 1.472 3.48 1.6095 3.7463.0592.0966.1531.2044.2917.3217.1175.0781.2717.1252.479.1252.2142 0 .5286-.0775.9589-.2661l.0021-.001.0022-.0009c.8406-.3532 1.1012-.7236 1.1012-1.0488 0-.1533-.0794-.4621-.2874-.9628-.6385-1.4464-1.1115-2.5406-1.4183-3.2811l-.0809-.1953.1512-.1475c.9766-.9524 1.4687-2.1638 1.4687-3.6599 0-.862-.1718-1.6355-.51-2.3263-.3436-.7018-.7737-1.2463-1.2859-1.6442-1.1092-.857-2.2318-1.2713-3.373-1.2713h-4.5006c-.4268 0-.746.0456-.9713.1238-.223.0773-.3287.1768-.3778.2717l-.0009.0016-.0008.0016c-.0981.1843-.1523.3359-.1741.4574-.0119.1391-.0185.3601-.0185.6695v11.587c0 .4786.0421.7969.1073.9819l.0013.0038.0012.0038c.0975.3012.4563.557 1.4128.557.4267 0 .746-.0457.9713-.1238.2229-.0773.3287-.1768.3778-.2717l.0008-.0016.0009-.0016c.101-.1899.1435-.329.1522-.4244l.001-.0116.0019-.0114c.0235-.1413.0375-.3643.0375-.6795zm0-7.3906v4.3185h2.978c.4864 0 .9535-.186 1.3964-.5226.4968-.3777.7273-.9391.7273-1.6262 0-.6859-.2296-1.2465-.7245-1.6241-.4461-.3537-.9282-.5456-1.4409-.5456z" fill-rule="evenodd"/><path clip-rule="evenodd" d="m26.632 33.2019c-.2097 0-.3647-.0485-.4822-.1285-.1351-.1023-.2256-.2009-.2826-.2929l-.3038-.6087-1.16-2.4142h-6.1246l-1.16 2.4142c-.1365.2734-.2396.4589-.311.5663l-.007.0105-.006.0109c-.0399.0719-.1269.1724-.2894.2979-.0969.0722-.2456.1238-.4759.1238-.1866 0-.4981-.089-.9593-.32l-.0019-.001-.0019-.0009c-.7813-.3779-1.0264-.7432-1.0264-1.0491 0-.1562.086-.4518.3194-.9197l.001-.0019 5.592-11.6006.0005-.0011c.1259-.2637.3132-.4753.5679-.6384.2721-.1654.5475-.2437.8307-.2437.321 0 .5852.0767.8048.2197.2205.1436.4144.3661.5745.6863l5.5911 11.5779.0009.0018c.2334.4679.3194.7635.3194.9197 0 .3082-.2481.6799-1.0302 1.0717-.4585.2297-.7781.32-.98.32zm-3.4186-5.8958-1.8847-3.8615-1.8566 3.8615z" fill-rule="evenodd"/></g><g clip-path="url(#b)"><path d="m126.111 27.4082c1.025 0 1.856-.8331 1.856-1.8608s-.831-1.8609-1.856-1.8609c-1.026 0-1.857.8332-1.857 1.8609s.831 1.8608 1.857 1.8608z" fill="#0d0a0b"/><path d="m112.027 27.4082c1.025 0 1.856-.8331 1.856-1.8608s-.831-1.8609-1.856-1.8609c-1.026 0-1.857.8332-1.857 1.8609s.831 1.8608 1.857 1.8608z" fill="#0d0a0b"/><path d="m130.254 30.5625h-3.373v2.587h3.373z" fill="#01aae0"/><path d="m126.881 30.5623h-19.338c-.203 0-.385-.1588-.407-.3631v2.9502h19.745z" fill="#117bc7"/><path d="m107.136 30.154v-6.2634h-2.876v6.3996c0 1.5885 1.268 2.8593 2.853 2.8593h.023v-2.9501c0-.0227 0-.0227 0-.0454z" fill="#01aae0"/><path d="m104.26 20.7816v3.109h2.876v-2.9728c0-.2043.158-.3858.362-.4085h-3.215c-.023.0908-.023.1815-.023.2723z" fill="#0092c0"/><path d="m106.977 17.9224c-1.426.068-2.581 1.18-2.694 2.587h3.215.045 20.108v-2.587z" fill="#0ed6e5"/><path d="m127.628 17.9224v2.587h2.986c.205 0 .387.1589.41.3631v-2.9501z" fill="#0cc4e2"/><path d="m131.183 17.9224h-.159v2.9501.0454 8.9185h2.876v-9.0547c-.023-1.5431-1.223-2.7913-2.717-2.8593z" fill="#13e0f9"/><path d="m118.684 14.2332v3.166h1.064v-3.2114c.702-.227 1.223-.8397 1.223-1.5886 0-.9304-.815-1.6793-1.834-1.6793-.997 0-1.835.7489-1.835 1.6793.023.7943.612 1.4524 1.382 1.634z" fill="#01aae0"/></g></g></svg>