<svg enable-background="new 0 0 195 24.1" viewBox="0 0 195 24.1" xmlns="http://www.w3.org/2000/svg" xmlns:xlink="http://www.w3.org/1999/xlink"><mask id="a" height="24.1" maskUnits="userSpaceOnUse" width="195" x="0" y="0"><path d="m195.5-.6h-196.1v24.7h196.1z" fill="#fff"/></mask><mask id="b" height="24" maskUnits="userSpaceOnUse" width="32.5" x="98.9" y="0"><path d="m131.4 0h-32.5v24h32.5z" fill="#fff"/></mask><mask id="c" height="24" maskUnits="userSpaceOnUse" width="32.5" x="98.9" y="0"><path d="m131.4 0h-32.5v24h32.5z" fill="#fff"/></mask><g mask="url(#a)"><g fill="#fff"><path clip-rule="evenodd" d="m186.9 8.1h-4.1c-.9 0-1.5.2-1.7.6-.1.2-.2.4-.2.6v.8 11.9c0 .6.1 1.1.3 1.4.2.4.8.5 1.7.5h4c2.3 0 4.2-.8 5.7-2.4 1.6-1.6 2.4-3.5 2.4-5.7s-.8-4.1-2.4-5.6c-1.7-1.4-3.6-2.1-5.7-2.1zm2.9 10.9c-.9.8-1.8 1.2-2.9 1.2h-2.1v-8.2h2.1c1.1 0 2.1.4 2.9 1.2s1.3 1.8 1.3 2.9-.5 2.1-1.3 2.9z" fill-rule="evenodd"/><path d="m161.2 21c-.2-.1-.6-.2-1.1-.2h-6v-10.8c0-.5 0-.9-.1-1.1-.2-.5-.8-.8-1.8-.8-.9 0-1.5.2-1.7.6-.1.2-.2.4-.2.6v.7 12.1c0 .5 0 .9.1 1.1.2.6.8.8 1.8.8h7.9c.5 0 .9-.1 1.1-.2s.3-.2.4-.5c.1-.2.1-.5.1-.9s0-.7-.1-.9c0-.3-.2-.4-.4-.5z"/><path d="m77.3 23.9c-.2-.1-.3-.2-.4-.3-3.5-4.6-5.8-7.6-6.9-9l-.6-.8v8.5.7c0 .1-.1.3-.2.5-.1.1-.2.2-.4.3-.3.2-.6.2-1.1.2s-.8 0-1-.1-.4-.2-.4-.3c-.1-.2-.2-.4-.2-.5 0-.2 0-.4 0-.8v-12.7c0-.6.1-.9.2-1.1s.3-.3.5-.4c.1-.1.4-.1.9-.1.4 0 .8 0 1 .1.3.1.4.1.4.2s0 0 .1.1.2.2.3.4c3.2 4.4 5.4 7.2 6.5 8.6l.6.8v-8.6c0-.6.1-.9.2-1.1s.3-.3.5-.4c.3-.1.6-.1 1.1-.1.4 0 .7 0 1 .1.3.1.4.1.5.2.1.1.1.1.2.3.1.2.1.5.1 1v12.6.7c0 .1-.1.3-.2.5-.1.1-.2.2-.4.3-.4.3-.7.3-1.2.3-.6 0-1 0-1.1-.1z"/><path clip-rule="evenodd" d="m38.1 19.4h3.2l.9-.1.1.2c1 2.4 1.6 3.8 1.8 4 .1.1.2.2.3.3s.3.1.5.1.6-.1 1.1-.3c.9-.4 1.2-.8 1.2-1.1 0-.2-.1-.5-.3-1-.7-1.6-1.2-2.7-1.6-3.5l-.1-.2.2-.2c1.1-1 1.6-2.3 1.6-4 0-.9-.2-1.8-.6-2.5-.4-.8-.8-1.3-1.4-1.8-1.2-.9-2.4-1.4-3.7-1.4h-4.9c-.5 0-.8 0-1.1.1-.1.3-.3.4-.3.5-.1.2-.2.4-.2.5v.7 12.5c0 .5 0 .9.1 1.1.1.3.5.6 1.5.6.5 0 .8 0 1.1-.1.2-.1.4-.2.4-.3.1-.2.2-.4.2-.5 0-.2 0-.4 0-.7zm0-8v4.7h3.3c.5 0 1-.2 1.5-.6s.8-1 .8-1.8c0-.7-.3-1.3-.8-1.8-.5-.4-1-.6-1.6-.6z" fill-rule="evenodd"/><path clip-rule="evenodd" d="m13.8 24.1c-.2 0-.4-.1-.5-.1-.1-.1-.2-.2-.3-.3l-.4-.7-1.3-2.6h-6.7l-1.2 2.6c-.1.3-.3.5-.3.6 0 .1-.1.2-.3.3s-.4.1-.6.1-.5-.1-1.1-.3c-.8-.4-1.1-.8-1.1-1.1 0-.2.1-.5.4-1l6.1-12.6c.1-.3.3-.5.6-.7.3-.1.6-.2.9-.2.4 0 .6.1.9.2.2.2.5.4.6.7l6.1 12.5c.3.5.4.8.4 1 0 .3-.3.7-1.1 1.2-.5.3-.9.4-1.1.4zm-3.7-6.4-2.1-4.2-2 4.2z" fill-rule="evenodd"/></g><g mask="url(#b)"><g fill="#fff" mask="url(#c)"><path d="m122.8 17.8c1.1 0 2-.9 2-2s-.9-2-2-2-2 .9-2 2 .9 2 2 2z"/><path d="m107.4 17.8c1.1 0 2-.9 2-2s-.9-2-2-2-2 .9-2 2 .9 2 2 2z"/><path d="m127.4 21.2h-3.7v2.8h3.7z"/><path d="m123.7 21.2h-21.2c-.2 0-.4-.2-.4-.4v3.2h21.6z"/><path d="m102 20.8v-6.8h-3.2v6.9c0 1.7 1.4 3.1 3.1 3.1v-3.2z"/><path d="m98.9 10.7v3.3h3.2v-3.2c0-.2.2-.4.4-.4h-3.5c-.1.1-.1.2-.1.3z"/><path d="m101.9 7.6c-1.6.1-2.8 1.3-3 2.8h3.5.1 22v-2.8z"/><path d="m124.5 7.6v2.8h3.3c.2 0 .4.2.4.4v-3.2z"/><path d="m128.4 7.6h-.2v3.2 9.6h3.2v-9.8c0-1.6-1.4-3-3-3z"/><path d="m114.7 3.6v3.4h1.2v-3.5c.8-.2 1.3-.9 1.3-1.7 0-1-.9-1.8-2-1.8s-2 .8-2 1.8c0 .9.7 1.6 1.5 1.8z"/></g></g></g></svg>