<svg width="228" height="57" viewBox="0 0 272 67" fill="none" xmlns="http://www.w3.org/2000/svg"><g clip-path="url(#clip0_404_5827)"><path fill-rule="evenodd" clip-rule="evenodd" d="M242.694 23.6785L237.822 23.6525C236.698 23.6525 236.013 23.8861 235.767 24.3532C235.627 24.6127 235.539 24.8376 235.504 25.0279C235.486 25.2182 235.478 25.521 235.478 25.9362V40.3648C235.478 41.1087 235.583 41.6623 235.794 42.0256C236.057 42.4581 236.724 42.6744 237.795 42.6744H242.615C245.302 42.6744 247.584 41.7315 249.463 39.8458C251.36 37.96 252.308 35.7023 252.308 33.0726C252.308 30.4257 251.342 28.2026 249.41 26.4033C247.479 24.5868 245.24 23.6785 242.694 23.6785ZM246.118 36.7057C245.1 37.6227 243.959 38.0811 242.694 38.0811H240.139V28.2718H242.668C244.002 28.2718 245.161 28.7475 246.145 29.699C247.145 30.6333 247.646 31.8011 247.646 33.2024C247.646 34.6037 247.137 35.7715 246.118 36.7057Z" fill="white"></path><path d="M212.039 39.0669C211.775 38.9285 211.354 38.8593 210.774 38.8593H203.61V25.9877C203.61 25.3822 203.567 24.9324 203.479 24.6383C203.25 23.9982 202.522 23.6781 201.293 23.6781C200.169 23.6781 199.484 23.9117 199.238 24.3788C199.098 24.6383 199.01 24.8718 198.975 25.0794C198.957 25.2697 198.949 25.5639 198.949 25.9618V40.3904C198.949 40.9959 199.001 41.437 199.107 41.7139C199.317 42.3713 200.037 42.7 201.266 42.7H210.748C211.328 42.7 211.784 42.6135 212.118 42.4405C212.328 42.3367 212.478 42.1464 212.565 41.8696C212.653 41.5928 212.697 41.2294 212.697 40.7796C212.697 40.3125 212.653 39.9406 212.565 39.6637C212.478 39.3869 212.302 39.188 212.039 39.0669Z" fill="white"></path><path d="M111.921 42.5678C111.716 42.4868 111.546 42.3604 111.407 42.1826C107.277 36.746 104.558 33.1914 103.253 31.5213L102.516 30.5791V40.715C102.516 41.1468 102.497 41.433 102.468 41.5941L102.464 41.6119L102.463 41.6299C102.451 41.7543 102.395 41.9354 102.262 42.1826L102.26 42.1847L102.259 42.1868C102.194 42.3104 102.055 42.44 101.76 42.5407C101.462 42.6425 101.04 42.7019 100.476 42.7019C99.9313 42.7019 99.5241 42.6427 99.2366 42.5418C98.9531 42.4424 98.8145 42.3138 98.7478 42.1868L98.7467 42.1847L98.7456 42.1826C98.6162 41.9433 98.5447 41.7463 98.5157 41.5883C98.4997 41.3879 98.491 41.0897 98.491 40.6878V25.5154C98.491 24.8438 98.5742 24.4305 98.6892 24.2133C98.8234 23.9765 99.0065 23.8303 99.2503 23.7543C99.5443 23.6626 99.9482 23.61 100.476 23.61C101.007 23.61 101.385 23.6634 101.634 23.75L101.647 23.7546L101.66 23.7583C101.973 23.8441 102.117 23.9301 102.168 23.9806L102.189 24.0009L102.212 24.0183C102.212 24.0181 102.212 24.018 102.212 24.0183C102.213 24.0186 102.214 24.0197 102.215 24.0214C102.227 24.0331 102.273 24.0774 102.365 24.18C102.464 24.2912 102.598 24.4474 102.768 24.6502C106.638 29.8468 109.228 33.2827 110.534 34.9538L111.27 35.896V25.5154C111.27 24.8438 111.354 24.4305 111.469 24.2133C111.603 23.9765 111.786 23.8303 112.03 23.7543C112.326 23.6619 112.713 23.61 113.2 23.61C113.715 23.61 114.093 23.6545 114.351 23.7294L114.354 23.7303L114.357 23.7311C114.667 23.816 114.835 23.9047 114.913 23.9718L114.922 23.9795L114.931 23.9867C115.01 24.0477 115.09 24.1549 115.146 24.3489L115.151 24.3646L115.157 24.3799C115.239 24.5978 115.296 24.9982 115.296 25.6241V40.715C115.296 41.1468 115.277 41.433 115.247 41.5941L115.244 41.6119L115.242 41.6299C115.231 41.7543 115.175 41.9354 115.041 42.1826L115.04 42.1847L115.039 42.1868C114.974 42.3104 114.834 42.44 114.539 42.5407C114.242 42.6425 113.82 42.7019 113.255 42.7019C112.538 42.7019 112.115 42.6445 111.921 42.5678Z" fill="white"></path><path fill-rule="evenodd" clip-rule="evenodd" d="M65.2114 37.195H69.0381L70.1588 37.1236L70.2709 37.3873C71.4988 40.2753 72.1958 41.8712 72.3756 42.2143C72.4531 42.3387 72.5758 42.4777 72.7571 42.6288C72.9108 42.7294 73.1124 42.7901 73.3835 42.7901C73.6635 42.7901 74.0748 42.6902 74.6374 42.4472L74.6402 42.446L74.6431 42.4448C75.7423 41.9897 76.083 41.5125 76.083 41.0935C76.083 40.8959 75.9793 40.4981 75.7072 39.853C74.8723 37.9893 74.2538 36.5795 73.8526 35.6253L73.7468 35.3737L73.9445 35.1837C75.2215 33.9566 75.865 32.3957 75.865 30.468C75.865 29.3574 75.6404 28.3607 75.1982 27.4707C74.7488 26.5664 74.1863 25.8648 73.5166 25.3522C72.0661 24.248 70.5981 23.7142 69.1057 23.7142H63.2203C62.6622 23.7142 62.2448 23.773 61.9501 23.8737C61.6586 23.9733 61.5203 24.1015 61.4561 24.2238L61.455 24.2259L61.4539 24.2279C61.3256 24.4654 61.2548 24.6606 61.2262 24.8172C61.2107 24.9965 61.202 25.2813 61.202 25.6799V40.6093C61.202 41.2259 61.2571 41.636 61.3423 41.8744L61.3441 41.8793L61.3457 41.8842C61.4732 42.2723 61.9423 42.6018 63.1931 42.6018C63.7512 42.6018 64.1687 42.543 64.4633 42.4424C64.7549 42.3427 64.8931 42.2145 64.9573 42.0922L64.9584 42.0902L64.9595 42.0881C65.0917 41.8435 65.1473 41.6643 65.1586 41.5413L65.16 41.5264L65.1625 41.5116C65.1932 41.3297 65.2114 41.0423 65.2114 40.6362V37.195ZM65.2114 27.6725V33.2367H69.1057C69.7418 33.2367 70.3527 32.9971 70.9318 32.5633C71.5815 32.0767 71.8829 31.3533 71.8829 30.468C71.8829 29.5843 71.5826 28.862 70.9354 28.3755C70.3521 27.9197 69.7217 27.6725 69.0512 27.6725H65.2114Z" fill="white"></path><path fill-rule="evenodd" clip-rule="evenodd" d="M36.1865 42.7797C35.9123 42.7797 35.7096 42.7173 35.5559 42.6141C35.3792 42.4823 35.261 42.3553 35.1864 42.2368L34.7891 41.4524L33.2721 38.3418H25.2632L23.7461 41.4524C23.5676 41.8047 23.4329 42.0438 23.3394 42.1821L23.3304 42.1956L23.3224 42.2097C23.2703 42.3023 23.1566 42.4318 22.944 42.5935C22.8174 42.6866 22.6229 42.753 22.3217 42.753C22.0777 42.753 21.6703 42.6383 21.0673 42.3406L21.0648 42.3394L21.0622 42.3382C20.0406 41.8513 19.7201 41.3806 19.7201 40.9865C19.7201 40.7852 19.8325 40.4044 20.1378 39.8015L20.139 39.7991L27.4517 24.8521L27.4524 24.8508C27.617 24.511 27.8618 24.2383 28.195 24.0282C28.5508 23.8151 28.9109 23.7142 29.2812 23.7142C29.701 23.7142 30.0465 23.813 30.3337 23.9973C30.622 24.1823 30.8756 24.469 31.0849 24.8815L38.3963 39.7992L38.3975 39.8015C38.7028 40.4044 38.8152 40.7852 38.8152 40.9865C38.8152 41.3836 38.4908 41.8625 37.468 42.3674C36.8685 42.6633 36.4506 42.7797 36.1865 42.7797ZM31.716 35.1832L29.2514 30.2078L26.8235 35.1832H31.716Z" fill="white"></path><g clip-path="url(#clip1_404_5827)"><g clip-path="url(#clip2_404_5827)"><path d="M166.274 35.3142C167.615 35.3142 168.702 34.2407 168.702 32.9166C168.702 31.5924 167.615 30.5189 166.274 30.5189C164.933 30.5189 163.846 31.5924 163.846 32.9166C163.846 34.2407 164.933 35.3142 166.274 35.3142Z" fill="white"></path><path d="M147.857 35.3145C149.197 35.3145 150.285 34.241 150.285 32.9168C150.285 31.5926 149.197 30.5192 147.857 30.5192C146.516 30.5192 145.428 31.5926 145.428 32.9168C145.428 34.241 146.516 35.3145 147.857 35.3145Z" fill="white"></path><path d="M171.693 39.3785H167.281V42.7118H171.693V39.3785Z" fill="white"></path><path d="M167.281 39.3785H141.994C141.727 39.3785 141.49 39.1738 141.461 38.9106V42.7118H167.281V39.3785Z" fill="white"></path><path d="M141.461 38.8522V30.782H137.7V39.0276C137.7 41.0744 139.358 42.7118 141.431 42.7118H141.461V38.9107C141.461 38.8814 141.461 38.8814 141.461 38.8522Z" fill="white"></path><path d="M137.7 26.7762V30.782H141.461V26.9517C141.461 26.6885 141.668 26.4546 141.934 26.4254H137.73C137.7 26.5423 137.7 26.6593 137.7 26.7762Z" fill="white"></path><path d="M141.253 23.092C139.388 23.1798 137.878 24.6125 137.73 26.4254H141.934C141.964 26.4254 141.964 26.4254 141.994 26.4254H168.288V23.092H141.253Z" fill="white"></path><path d="M168.258 23.092V26.4254H172.163C172.431 26.4254 172.67 26.63 172.7 26.8932V23.092H168.258Z" fill="white"></path><path d="M172.907 23.092H172.7V26.8932C172.7 26.9224 172.7 26.9224 172.7 26.9517V38.4428H176.46V26.7762C176.43 24.7879 174.861 23.1798 172.907 23.092Z" fill="white"></path><path d="M156.562 18.339V22.4183H157.954V18.2805C158.871 17.9881 159.552 17.1986 159.552 16.2337C159.552 15.0349 158.487 14.07 157.154 14.07C155.851 14.07 154.756 15.0349 154.756 16.2337C154.785 17.2571 155.555 18.1051 156.562 18.339Z" fill="white"></path></g></g></g><defs><clipPath id="clip0_404_5827"><rect width="233.92" height="29.48" fill="white" transform="translate(19.04 13.4)"></rect></clipPath><clipPath id="clip1_404_5827"><rect width="38.76" height="28.6418" fill="white" transform="translate(137.7 14.07)"></rect></clipPath><clipPath id="clip2_404_5827"><rect width="38.76" height="28.6418" fill="white" transform="translate(137.7 14.07)"></rect></clipPath></defs></svg>