<svg fill="none" height="72" viewBox="0 0 72 72" width="72" xmlns="http://www.w3.org/2000/svg" xmlns:xlink="http://www.w3.org/1999/xlink"><clipPath id="a"><path d="m13.8242 16.1279h44.352v33.2632h-44.352z"/></clipPath><path d="m72 36c0 19.8822-16.1178 36-36 36-19.8823 0-36-16.1178-36-36 0-19.8823 16.1177-36 36-36 19.8822 0 36 16.1177 36 36z" fill="#fff"/><path d="m66.469 70.5931c1.3447.3763 2.5873-.8554 2.2227-2.2034l-3.8917-14.3898-12.6 12.6z" fill="#fff"/><g clip-path="url(#a)"><path d="m46.5205 40.8c1.5345 0 2.7784-1.2467 2.7784-2.7845 0-1.5379-1.2439-2.7845-2.7784-2.7845-1.5344 0-2.7783 1.2466-2.7783 2.7845 0 1.5378 1.2439 2.7845 2.7783 2.7845z" fill="#0d0a0b"/><path d="m25.4463 40.8c1.5345 0 2.7784-1.2467 2.7784-2.7845 0-1.5379-1.2439-2.7845-2.7784-2.7845-1.5344 0-2.7783 1.2466-2.7783 2.7845 0 1.5378 1.2439 2.7845 2.7783 2.7845z" fill="#0d0a0b"/><path d="m52.7203 45.5195h-5.0484v3.8712h5.0484z" fill="#01aae0"/><path d="m47.6743 45.5199h-28.9355c-.305 0-.576-.2377-.6099-.5433v4.4144h29.5454z" fill="#117bc7"/><path d="m18.1273 44.9084v-9.3723h-4.3031v9.576c0 2.3771 1.8974 4.2787 4.2692 4.2787h.0339v-4.4145c0-.034 0-.034 0-.0679z" fill="#01aae0"/><path d="m13.8242 30.8841v4.6521h4.3031v-4.4484c0-.3056.2372-.5773.5421-.6112h-4.8113c-.0339.1358-.0339.2716-.0339.4075z" fill="#0092c0"/><path d="m17.8914 26.6055c-2.1346.1018-3.8626 1.7658-4.032 3.8711h4.8113.0677 30.0876v-3.8711z" fill="#0ed6e5"/><path d="m48.7891 26.6055v3.8711h4.4684c.307 0 .5798.2377.6139.5433v-4.4144z" fill="#0cc4e2"/><path d="m54.1122 26.6055h-.2372v4.4144.068 13.3452h4.3031v-13.549c-.0339-2.3091-1.8297-4.1768-4.0659-4.2786z" fill="#13e0f9"/><path d="m35.4067 21.0857v4.7376h1.5924v-4.8055c1.0504-.3396 1.8297-1.2564 1.8297-2.377 0-1.3923-1.2198-2.5129-2.7445-2.5129-1.4908 0-2.7445 1.1206-2.7445 2.5129.0339 1.1885.9149 2.1733 2.0669 2.4449z" fill="#01aae0"/></g></svg>