<svg width="22" height="22" viewBox="0 0 22 22" fill="none" xmlns="http://www.w3.org/2000/svg">
<path d="M21 11C21 9.02219 20.4135 7.08879 19.3147 5.4443C18.2159 3.79981 16.6541 2.51808 14.8268 1.7612C12.9996 1.00433 10.9889 0.806295 9.0491 1.19215C7.10929 1.578 5.32746 2.53041 3.92893 3.92893L11 11H21Z" fill="white"/>
<path d="M3.92893 3.92893C2.05357 5.8043 1 8.34784 1 11C1 13.6522 2.05357 16.1957 3.92893 18.0711L11 11L3.92893 3.92893Z" fill="#6FB1D6"/>
<path d="M3.92893 18.0711C5.32746 19.4696 7.10929 20.422 9.0491 20.8079C10.9889 21.1937 12.9996 20.9957 14.8268 20.2388C16.6541 19.4819 18.2159 18.2002 19.3147 16.5557C20.4135 14.9112 21 12.9778 21 11H11L3.92893 18.0711Z" fill="#DB5F7B"/>
</svg>
