<?xml version="1.0" encoding="UTF-8"?><!DOCTYPE svg PUBLIC "-//W3C//DTD SVG 1.1//EN" "http://www.w3.org/Graphics/SVG/1.1/DTD/svg11.dtd"><svg xmlns="http://www.w3.org/2000/svg" xmlns:xlink="http://www.w3.org/1999/xlink"><defs/><symbol id="arrow-down" viewBox="0 0 24 24"><path d="m12.47 17.29 3.46-3.55.67.67-4.61 4.61-4.59-4.61.67-.66 3.44 3.54v-12.31h.96z"/></symbol><symbol id="arrow-left" viewBox="0 0 24 24"><path d="m6.71 12.47 3.55 3.46-.67.67-4.61-4.61 4.61-4.59.66.67-3.54 3.44h12.3v.96z"/></symbol><symbol id="arrow-right" viewBox="0 0 24 24"><path d="m4.98 12.47v-.96h12.3l-3.54-3.44.66-.67 4.61 4.59-4.61 4.61-.67-.67 3.55-3.46z"/></symbol><symbol id="arrow-up" viewBox="0 0 24 24"><path d="m11.53 6.71-3.46 3.55-.67-.67 4.61-4.61 4.59 4.61-.67.66-3.44-3.54v12.3h-.96z"/></symbol><symbol id="chevron-down" viewBox="0 0 24 24"><path d="m16.2 8.8-4.2 4.1-4.2-4.1c-.4-.4-1.1-.4-1.5 0s-.4 1.1 0 1.5l4.9 4.9c.4.4 1.1.4 1.5 0l4.9-4.9c.4-.4.4-1.1 0-1.5-.3-.4-1-.4-1.4 0z"/></symbol><symbol id="chevron-left" viewBox="0 0 24 24"><path d="m15.2 6.3c-.4-.4-1.1-.4-1.5 0l-4.9 4.9c-.4.4-.4 1.1 0 1.5l4.9 4.9c.4.4 1.1.4 1.5 0s.4-1.1 0-1.5l-4.1-4.1 4.2-4.2c.3-.4.3-1.1-.1-1.5z"/></symbol><symbol id="chevron-right" viewBox="0 0 24 24"><path d="m8.8 17.7c.4.4 1.1.4 1.5 0l4.9-4.9c.4-.4.4-1.1 0-1.5l-4.9-4.9c-.4-.4-1.1-.4-1.5 0s-.4 1.1 0 1.5l4.2 4.2-4.2 4.2c-.4.3-.4 1 0 1.4z"/></symbol><symbol id="chevron-up" viewBox="0 0 24 24"><path d="m17.7 15.2c.4-.4.4-1.1 0-1.5l-4.9-4.9c-.4-.4-1.1-.4-1.5 0l-4.9 4.9c-.4.4-.4 1.1 0 1.5s1.1.4 1.5 0l4.2-4.2 4.2 4.2c.3.4 1 .4 1.4 0z"/></symbol><symbol id="close" viewBox="0 0 24 24"><path clip-rule="evenodd" d="m5.47 5.47c.29-.29.77-.29 1.06 0l5.47 5.47 5.47-5.47c.29-.29.77-.29 1.06 0s.29.77 0 1.06l-5.47 5.47 5.47 5.47c.29.29.29.77 0 1.06s-.77.29-1.06 0l-5.47-5.47-5.47 5.47c-.29.29-.77.29-1.06 0s-.29-.77 0-1.06l5.47-5.47-5.47-5.47c-.29-.29-.29-.77 0-1.06z" fill-rule="evenodd"/></symbol><symbol id="facebook" viewBox="0 0 24 24"><path d="m23 12.1c0-6.1-4.9-11-11-11s-11 4.9-11 11c0 5.5 4 10 9.3 10.9v-7.7h-2.8v-3.2h2.8v-2.5c0-2.8 1.6-4.3 4.2-4.3 1.2 0 2.5.2 2.5.2v2.7h-1.4c-1.4 0-1.8.8-1.8 1.7v2.1h3.1l-.5 3.2h-2.6v7.7c5.2-.8 9.2-5.3 9.2-10.8z"/></symbol><symbol id="home" viewBox="0 0 24 24"><path clip-rule="evenodd" d="m12.2652 3.57566c-.1465-.14645-.3839-.14645-.5304 0l-6.4848 6.48484v9.8143c0 .2071.16789.375.375.375h3.375v-4.125c0-1.0355.83947-1.875 1.875-1.875h2.25c1.0355 0 1.875.8395 1.875 1.875v4.125h3.375c.2071 0 .375-.1679.375-.375v-9.8143zm7.9848 7.98484.9697.9697c.2929.2929.7677.2929 1.0606 0s.2929-.7678 0-1.0607l-8.9545-8.95451c-.7322-.73223-1.9194-.73223-2.6516.00001l-8.95453 8.9545c-.29289.2929-.29289.7678 0 1.0607s.76777.2929 1.06066 0l.96967-.9697v8.3143c0 1.0356.83947 1.875 1.875 1.875h12.75c1.0355 0 1.875-.8394 1.875-1.875zm-6.75 8.6893h-3v-4.125c0-.2071.1679-.375.375-.375h2.25c.2071 0 .375.1679.375.375z" fill-rule="evenodd"/></symbol><symbol id="linkedin" viewBox="0 0 24 24"><g><path d="m12.8 11c-.1 0-.1 0 0 0z"/><path d="m20.5 1.9h-17c-.8 0-1.5.7-1.5 1.5v17.2c0 .8.7 1.4 1.5 1.4h17c.8 0 1.5-.6 1.5-1.4v-17.2c0-.8-.7-1.5-1.5-1.5zm-12.4 16.9h-3.1v-9.1h3v9.1zm-1.5-10.3c-1 0-1.7-.7-1.7-1.6s.7-1.6 1.7-1.6 1.7.7 1.7 1.6-.7 1.6-1.7 1.6zm12.4 10.3h-3v-4.9c0-1.2-.4-2.1-1.5-2.1-.8 0-1.3.6-1.6 1.1-.1.2-.1.5-.1.7v5.1h-3s0-8.2 0-9.1h3v1.4c.4-.6 1.1-1.5 2.7-1.5 2 0 3.5 1.3 3.5 4.1z"/></g></symbol><symbol id="menu" viewBox="0 0 14 14"><path d="m2.3916 9.93679v-.75819h9.2167v.75819zm0-2.55762v-.75834h9.2167v.75834zm0-2.55777v-.75819h9.2167v.75819z"/></symbol><symbol id="search" viewBox="0 0 24 24"><path d="m20.75 19.52-3.35-3.35c1.12-1.39 1.8-3.15 1.8-5.07 0-4.46-3.63-8.1-8.1-8.1s-8.1 3.63-8.1 8.1c0 4.46 3.63 8.1 8.1 8.1 1.92 0 3.69-.68 5.07-1.8l3.35 3.35c.17.17.39.25.61.25s.44-.08.61-.25c.34-.34.34-.89.01-1.23zm-16.02-8.42c0-3.51 2.86-6.37 6.37-6.37s6.37 2.86 6.37 6.37c0 1.75-.71 3.33-1.85 4.48-.01.01-.01.01-.02.01-.01.01-.01.01-.01.02-1.15 1.14-2.74 1.85-4.48 1.85-3.52 0-6.38-2.85-6.38-6.36z"/></symbol><symbol id="x" viewBox="0 0 24 24"><path d="m13.7 10.6 6.7-7.8h-1.6l-5.8 6.8-4.6-6.8h-5.4l7 10.2-7 8.2h1.6l6.1-7.1 4.9 7.1h5.4zm-2.2 2.5-.7-1-5.6-8.1h2.4l4.6 6.5.7 1 5.9 8.5h-2.4z"/></symbol></svg>