<svg fill="none" height="64" viewBox="0 0 64 64" width="64" xmlns="http://www.w3.org/2000/svg"><path d="m13.332 28.0002c0-2.2092 1.9361-4 4.3244-4h22.3423v4z" fill="#0ed6e5"/><path d="m17.332 50.6668h20v4h-20z" fill="#117bc7"/><path d="m37.332 50.6668h8.6667v4h-8.6667z" fill="#117bc7"/><path d="m46.6654 24.0002c2.2091 0 4 1.9736 4 4.4081v19.5919h-4z" fill="#13e0f9"/><path d="m17.332 54.6668c-2.2091 0-4-1.9736-4-4.4081v-7.5919h4z" fill="#01aae0"/><path d="m39.9987 24.0002h6.6667v4h-6.6667z" fill="#0cc4e2"/><path d="m13.332 28.0002h4v14.6666h-4z" fill="#0ed6e5"/><path d="m18.6654 18.6668h4v5.3334h-4z" fill="#117bc7"/><path d="m31.9987 9.3335c-1.2257 0-2.4393.24141-3.5717.7105-1.1324.469-2.1613 1.1565-3.028 2.0232-.8666.8666-1.5541 1.8955-2.0232 3.0279-.469 1.1324-.7104 2.3461-.7104 3.5717h-4c0-1.7509.3448-3.4847 1.0149-5.1024s1.6522-3.0875 2.8903-4.32566c1.2381-1.23811 2.708-2.22024 4.3257-2.8903 1.6176-.67007 3.3514-1.01494 5.1024-1.01494s3.4848.34487 5.1024 1.01494c1.6177.67006 3.0876 1.65218 4.3257 2.8903 1.2381 1.23816 2.2202 2.70796 2.8903 4.32566l-3.6955 1.5307c-.4691-1.1324-1.1566-2.1613-2.0232-3.0279-.8667-.8667-1.8956-1.5542-3.028-2.0232-1.1324-.46909-2.346-.7105-3.5717-.7105z" fill="#0ed6e5"/><path d="m44.3171 13.5644c.6701 1.6177 1.0149 3.3511 1.0149 5.102v5.3338h-4v-5.3338c0-1.2257-.2414-2.4389-.7104-3.5713z" fill="#0092c0"/><path d="m29.332 37.3335c0-1.4728 1.1939-2.6667 2.6667-2.6667s2.6667 1.1939 2.6667 2.6667v8h-5.3334z" fill="#117bc7"/></svg>