<svg width="64" height="64" viewBox="0 0 64 64" fill="none" xmlns="http://www.w3.org/2000/svg">
<path d="M8.72656 18.9095C8.72656 16.4996 10.6802 14.5459 13.0902 14.5459H43.6357V18.9095H8.72656Z" fill="#0ED6E5"/>
<path d="M13.0898 45.0908H40.7262V49.4545H13.0898V45.0908Z" fill="#117BC7"/>
<path d="M40.7266 45.0908H49.4538V49.4545H40.7266V45.0908Z" fill="#01AAE0"/>
<path d="M50.9102 14.5459C53.3201 14.5459 55.2738 16.4996 55.2738 18.9095L55.2738 43.6368H50.9102L50.9102 14.5459Z" fill="#13E0F9"/>
<path d="M13.0902 49.4546C10.6802 49.4546 8.72656 47.501 8.72656 45.091L8.72656 34.9092L13.0902 34.9092L13.0902 49.4546Z" fill="#01AAE0"/>
<rect x="43.6367" y="14.5459" width="7.27273" height="4.36364" fill="#0CC4E2"/>
<path d="M8.72656 18.9092H13.0902V34.9092H8.72656V18.9092Z" fill="#0092C0"/>
<path d="M20.7152 23.2725L35.0851 37.6415L34.0565 38.6701C32.9205 39.8061 31.0786 39.8062 29.9425 38.6702L14.543 23.2725L20.7152 23.2725Z" fill="#0ED6E5"/>
<path d="M36.1864 30.3687L31.9988 34.5563L35.0851 37.6415L39.272 33.4543L36.1864 30.3687Z" fill="#01AAE0"/>
<path d="M43.2807 23.2733L36.1836 30.3708L39.2692 33.4564L49.4529 23.2733H43.2807Z" fill="#117BC7"/>
</svg>
