<svg viewBox="0 0 22 22" xmlns="http://www.w3.org/2000/svg"><path d="m11.1949 6.74805c2.0405 0 3.6966 1.65606 3.6966 3.69655 0 .3771-.0739.7393-.1774 1.0794l2.2623 2.2623c1.0276-.9093 1.8409-2.0479 2.351-3.3491-1.279-3.23817-4.4359-5.53743-8.1325-5.53743-.9389 0-1.84085.14786-2.69106.42141l1.60426 1.60431c.3475-.10351.7098-.17744 1.0868-.17744zm-6.86818-2.4693c-.28833.28833-.28833.7541 0 1.04243l1.45645 1.45645c-1.19769.95371-2.1514 2.21054-2.72067 3.66697 1.27901 3.2456 4.43588 5.5449 8.1324 5.5449 1.1238 0 2.1958-.2218 3.1865-.6063l2.0109 2.011c.2883.2883.7541.2883 1.0424 0 .2884-.2884.2884-.7541 0-1.0425l-12.05815-12.07295c-.28833-.28833-.76149-.28833-1.04983 0zm6.86818 9.86245c-2.04046 0-3.69652-1.6561-3.69652-3.6966 0-.56925.13307-1.10895.36226-1.58211l1.16072 1.16071c-.02218.1331-.04436.2736-.04436.4214 0 1.2273.99068 2.218 2.2179 2.218.1479 0 .281-.0222.4214-.0518l1.1608 1.1607c-.4806.2366-1.0129.3697-1.5822.3697zm2.1958-3.9406c-.1109-1.03499-.9241-1.84084-1.9518-1.95174z"/></svg>