<svg viewBox="0 0 22 22" xmlns="http://www.w3.org/2000/svg"><path d="m11.3905 4.87939c-3.68602 0-6.83389 2.29271-8.10925 5.52901 1.27536 3.2364 4.42323 5.5291 8.10925 5.5291 3.686 0 6.8339-2.2927 8.1093-5.5291-1.2754-3.2363-4.4233-5.52901-8.1093-5.52901zm0 9.21511c-2.03468 0-3.68602-1.6514-3.68602-3.6861 0-2.03465 1.65134-3.68599 3.68602-3.68599 2.0347 0 3.686 1.65134 3.686 3.68599 0 2.0347-1.6513 3.6861-3.686 3.6861zm0-5.89768c-1.2238 0-2.21161.98785-2.21161 2.21158 0 1.2238.98781 2.2116 2.21161 2.2116s2.2116-.9878 2.2116-2.2116c0-1.22373-.9878-2.21158-2.2116-2.21158z"/></svg>